<svg id="Layer_1" data-name="Layer 1" xmlns="http://www.w3.org/2000/svg" viewBox="0 0 249.68 248.16">
  <path d="M269.19,286.74h29.1c1.85-12.08,3.68-24.05,5.55-36.28H269.11c-.05-1-.13-1.73-.13-2.5q0-10.19,0-20.36c0-12.11,7.57-19.72,19.69-19.84,4.87,0,9.75,0,14.62,0h2.44c.06-.77.13-1.31.13-1.85,0-9,0-17.89.05-26.84,0-1.68-.62-2.3-2.13-2.4-9.77-.66-19.55-2-29.31-1.83-14.56.2-27.11,5.39-35.67,17.94a42.82,42.82,0,0,0-7.47,21.9c-.53,9.31-.41,18.66-.56,28,0,2.47,0,4.94,0,7.73h-31.9v36.17H230.6V373.9C172.49,365.46,123.1,313.76,125,247.05a124.85,124.85,0,0,1,249-9.16c6.86,70.36-43.6,126.86-104.83,136Z" transform="translate(-124.97 -125.74)" style="fill: #f1f1f1"/>
</svg>
