<svg id="Layer_1" data-name="Layer 1" xmlns="http://www.w3.org/2000/svg" viewBox="0 0 383.23 383.46">
  <g>
    <path d="M326,442H178.54a37.17,37.17,0,0,0-4-.61q-19.41-.92-38.84-1.74c-16.39-.68-31.35-5.58-44.58-15.3-15.66-11.51-24-27.73-28.33-46.15-2-8.57-3.19-17.35-4.75-26V145.57c.74-5.55,1.37-11.11,2.23-16.63,5.33-34,28.55-59.41,61.77-66.06a212.73,212.73,0,0,1,39.73-4.05c51.28-.45,102.57-.3,153.85-.1,17.2.06,34.53-.23,51.57,1.72,31.12,3.56,53.85,19.79,66.38,49a96.71,96.71,0,0,1,7.65,38.28q.07,103.11-.06,206.22a94.21,94.21,0,0,1-2.1,18.92c-6.28,30.09-22.68,51.93-52.16,62.88-10.62,3.94-21.77,4-32.83,4.72C344.71,441.1,335.37,441.51,326,442ZM107.76,250.06h.37c0,12.73-.39,25.47.11,38.17.51,12.94.92,26,3.08,38.73,5.45,32.23,24.05,52.91,56.32,60.54,13.56,3.2,27.36,4.29,41.23,4.36,26.57.12,53.16.44,79.73-.15a248.5,248.5,0,0,0,40.12-3.89c28-5.23,47.65-21.29,56.09-48.94a121.33,121.33,0,0,0,5.32-31.95c.85-33.92.89-67.85.72-101.78A205.43,205.43,0,0,0,388,174.27c-5-31.76-26.61-54.88-58.08-61.38a197.57,197.57,0,0,0-36-3.76q-42.48-.8-85,0a238.34,238.34,0,0,0-38.27,3.78c-27.9,5.11-47.53,20.91-56.14,48.36a129.21,129.21,0,0,0-5.42,30.82C108,211.37,108.15,230.73,107.76,250.06Z" transform="translate(-58 -58.54)" style="fill: #f1f1f1"/>
    <path d="M247.64,134.31c17.09,0,34.2-.41,51.27.16a162.59,162.59,0,0,1,28.12,3.6c15.29,3.23,25.61,12.75,31.24,27.35,4.63,12,6.52,24.6,7.33,37.3,2.41,37.66,1.17,75.31-1.43,112.91-.83,11.86-4.44,23-12.46,32.28-8.56,9.86-20,14.5-32.47,16.13A271.07,271.07,0,0,1,285,366.42c-26.94.09-53.9-.07-80.83-1A205.1,205.1,0,0,1,169.35,361c-16.6-3.46-26.55-14.32-30.68-30.74C134.83,315,134,299.42,134,283.85c0-28.93.33-57.87,1.25-86.78.31-9.5,2.26-19.07,4.51-28.36,4.09-16.87,15-27.57,32.18-30.52a295.76,295.76,0,0,1,36.41-3.64c13.07-.61,26.19-.14,39.29-.14ZM249.72,323a72.56,72.56,0,1,0-72.65-72.53A72.68,72.68,0,0,0,249.72,323Zm75.41-164.87A16.8,16.8,0,0,0,308.31,175,17,17,0,0,0,325,191.69a16.77,16.77,0,0,0,16.89-16.81A16.51,16.51,0,0,0,325.13,158.08Z" transform="translate(-58 -58.54)" style="fill: #f1f1f1"/>
    <path d="M296.52,250.21c.17,27.44-19.12,47.24-46.14,47.38-27.95.14-47.44-19.12-47.64-47.08-.2-27.37,19.15-47.21,46.18-47.38C276.87,203,296.34,222.22,296.52,250.21Z" transform="translate(-58 -58.54)" style="fill: #f1f1f1"/>
  </g>
</svg>
