<svg id="Layer_1" data-name="Layer 1" xmlns="http://www.w3.org/2000/svg" viewBox="0 0 152.06 129.39">
  <g>
    <path d="M316.56,314.6l-1.27-.31a8.84,8.84,0,1,1,4,0l-1,.26Zm.8-16.57a7.68,7.68,0,1,0,.06,15.36,7.68,7.68,0,1,0-.06-15.36Z" transform="translate(-174.16 -185.21)" style="fill: #f1f1f1"/>
    <path d="M302.7,249.46c0,18.09-.08,36.17.05,54.26a9.78,9.78,0,0,1-10,9.94q-54.34-.07-108.7,0c-6,0-9.92-4-9.92-9.93V195.07c0-5.85,4-9.85,9.87-9.85H293A9.35,9.35,0,0,1,302.7,195Zm-60.18-7.68c0-.62-.08-1-.08-1.46,0-1.84-.05-3.68,0-5.51,0-1-.28-1.4-1.36-1.39-5.12,0-10.24.05-15.36,0-1.13,0-1.42.38-1.41,1.45q0,29.12,0,58.22c0,1.12.38,1.43,1.46,1.42,5.28-.05,10.56,0,15.84,0,1.67,0,1.67,0,1.67-1.74,0-9.82,0-19.64,0-29.47a36.2,36.2,0,0,1,.31-4.65c1-7.38,5.69-11,13.06-10a7.83,7.83,0,0,1,7,6.29,34.88,34.88,0,0,1,1,7.81c.11,10.1.06,20.2,0,30.31,0,1.1.33,1.43,1.43,1.42,5.4-.05,10.8,0,16.2,0,.85,0,1.32-.14,1.31-1.16-.09-12.78,0-25.56-.3-38.33a38.9,38.9,0,0,0-1.9-10.31c-2-6.53-6.55-10.6-13.27-12a45.37,45.37,0,0,0-8.33-.76,18.45,18.45,0,0,0-13.17,5.19C245.22,238.5,244,240.1,242.52,241.78Zm-49.27,22.14c0,9.7,0,19.4,0,29.1,0,1.17.35,1.49,1.49,1.48q8-.08,16,0c1.1,0,1.54-.25,1.54-1.45q0-29.1,0-58.21c0-1.1-.35-1.44-1.44-1.43-5.32.05-10.64,0-16,0-1.56,0-1.57,0-1.57,1.61ZM213.76,214A11,11,0,1,0,202.68,225,11,11,0,0,0,213.76,214Z" transform="translate(-174.16 -185.21)" style="fill: #f1f1f1"/>
    <path d="M318.75,306.4l2.45,3.76c-.81.5-1.35.36-1.79-.33a26.15,26.15,0,0,0-1.77-2.7c-.32-.37-1-.47-1.48-.69a5.51,5.51,0,0,0-.51,1.28c-.09.66,0,1.35-.06,2,0,.26-.43.69-.58.66-.31-.06-.79-.38-.79-.6q-.09-4.07,0-8.13c0-.24.46-.67.73-.68a25.62,25.62,0,0,1,3.82.06,2.35,2.35,0,0,1,2.37,2.25,2.52,2.52,0,0,1-1.8,2.87Zm-1.5-4.22-.05-.17c-.51.19-1.31.24-1.48.59-.75,1.55,0,2.65,1.72,2.59.27,0,.55-.05.82-.09.9-.15,1.45-.63,1.38-1.6s-.75-1.23-1.56-1.32A7.66,7.66,0,0,0,317.25,302.18Z" transform="translate(-174.16 -185.21)" style="fill: #f1f1f1"/>
  </g>
</svg>
